<svg width="100" height="100" viewBox="0 0 100 100" fill="none" xmlns="http://www.w3.org/2000/svg">
    <path
        d="M7.38306 39.0724H23.3806V32.84H7.38306V29.4466H32.1596V24.4876H7.38306V11.8196H36.3358V51.6715H7.38306V39.074V39.0724Z"
        fill="#1E3BA1" />
    <path
        d="M40.5808 11.8196H80.9265V23.7098H93.5239V51.6715H76.0414V16.278H59.3367V23.7098H71.7275V51.6715H55.2344V16.278H44.8998V51.6698H40.5791V11.8196H40.5808Z"
        fill="#1E3BA1" />
    <path
        d="M7.8147 68.561V56.0224L8.5824 55.8443L13.9412 61.9893L19.2631 55.8443L20.0308 56.0224V68.561H17.1196V62.5235L14.0303 66.2747H13.8337L10.7444 62.6125V68.561H7.8147Z"
        fill="#1E3BA1" />
    <path
        d="M33.428 56.0224L28.9276 63.7381V68.561H25.9626V63.7381L21.4622 56.0224H24.9278L27.4997 60.5765L30.0715 56.0224H33.4296H33.428Z"
        fill="#1E3BA1" />
    <path
        d="M39.3225 68.561V56.0224L40.0902 55.8443L45.449 61.9893L50.7709 55.8443L51.5386 56.0224V68.561H48.6274V62.5235L45.5381 66.2747H45.3415L42.2522 62.6125V68.561H39.3225Z"
        fill="#1E3BA1" />
    <path
        d="M62.4528 66.0597V68.5593H54.2197V56.0207H62.31V58.5204H57.1662V60.9847H61.4163V63.4861H57.1662V66.058H62.4528V66.0597Z"
        fill="#1E3BA1" />
    <path
        d="M64.687 68.561V56.0224L65.4547 55.8443L70.8135 61.9893L76.1354 55.8443L76.9031 56.0224V68.561H73.9919V62.5235L70.9026 66.2747H70.706L67.6167 62.6125V68.561H64.687Z"
        fill="#1E3BA1" />
    <path
        d="M85.6739 55.7721C89.6217 55.7721 92.4069 58.7371 92.4069 62.2917C92.4069 65.8463 89.62 68.8113 85.6739 68.8113C81.7279 68.8113 78.9578 65.8278 78.9578 62.2917C78.9578 58.7555 81.7077 55.7721 85.6739 55.7721ZM85.6739 66.1134C87.4781 66.1134 89.2454 64.7208 89.2454 62.2917C89.2454 59.8626 87.4764 58.4162 85.6739 58.4162C83.8714 58.4162 82.1193 59.8626 82.1193 62.2917C82.1193 64.7208 83.8513 66.1134 85.6739 66.1134Z"
        fill="#1E3BA1" />
    <path
        d="M15.6816 83.4464V70.9078L16.4493 70.7297L21.8082 76.8747L27.13 70.7297L27.8977 70.9078V83.4464H24.9865V77.4089L21.8972 81.1601H21.7007L18.6114 77.498V83.4464H15.6816Z"
        fill="#1E3BA1" />
    <path
        d="M29.3288 83.4464L35.1866 70.8003H36.2231L42.0287 83.4464H38.7597L38.0625 81.9278H33.3286L32.6315 83.4464H29.3271H29.3288ZM34.3836 79.4987H36.9908L35.6872 76.4262L34.3836 79.4987Z"
        fill="#1E3BA1" />
    <path
        d="M50.5122 74.2121C49.7613 73.7837 48.5837 73.3369 47.7437 73.3369C46.761 73.3369 45.9395 73.6947 45.9395 74.3734C45.9395 75.0521 46.8147 75.4452 48.1015 75.9458C51.2093 77.1788 51.888 78.6067 51.8527 80.0715C51.799 82.3579 49.6907 83.7152 47.102 83.6967C45.281 83.6783 43.5474 82.84 42.7444 82.1781L43.8161 79.9103C44.5133 80.4109 45.7816 81.0711 46.9055 81.0711C47.7454 81.0711 48.8877 80.893 48.8877 80.0883C48.8877 79.2837 47.3338 78.8553 46.047 78.2489C44.1891 77.3737 42.9745 76.2313 42.9745 74.3734C42.9745 72.5154 44.6527 70.6575 47.4749 70.6575C49.0641 70.6575 50.8515 71.4252 51.4579 71.7477L50.5122 74.2121Z"
        fill="#1E3BA1" />
    <path d="M62.6056 73.4075H59.2828V83.4448H56.3363V73.4075H53.032V70.9078H62.6056V73.4075Z"
        fill="#1E3BA1" />
    <path
        d="M72.7153 80.9451V83.4448H64.4822V70.9061H72.5725V73.4058H67.4287V75.8702H71.6788V78.3715H67.4287V80.9434H72.7153V80.9451Z"
        fill="#1E3BA1" />
    <path
        d="M82.0923 78.5345L85.0758 83.4464H81.5044L79.2365 79.3744C78.8082 79.4097 78.3798 79.4097 77.8977 79.4097V83.4464H74.9512V71.0338C81.202 69.962 84.078 71.8737 84.078 75.0705C84.078 76.6597 83.0784 77.9633 82.0957 78.5361L82.0923 78.5345ZM77.8943 76.8546C80.2344 77.0326 81.0374 76.2465 81.0374 75.0151C81.0374 73.9433 80.0194 73.1756 77.8943 73.4797V76.8546Z"
        fill="#1E3BA1" />
</svg>