<svg width="100" height="100" viewBox="0 0 100 100" fill="none" xmlns="http://www.w3.org/2000/svg">
<path d="M7.38306 39.0724H23.3806V32.8401H7.38306V29.4467H32.1596V24.4877H7.38306V11.8197H36.3358V51.6715H7.38306V39.0741V39.0724Z" fill="#1E3BA1"/>
<path d="M40.5809 11.8197H80.9266V23.7099H93.524V51.6715H76.0415V16.2781H59.3368V23.7099H71.7276V51.6715H55.2345V16.2781H44.8999V51.6699H40.5792V11.8197H40.5809Z" fill="#1E3BA1"/>
<path d="M7.81482 68.5611V56.0224L8.58253 55.8444L13.9413 61.9894L19.2632 55.8444L20.0309 56.0224V68.5611H17.1197V62.5236L14.0304 66.2747H13.8338L10.7445 62.6126V68.5611H7.81482Z" fill="#1E3BA1"/>
<path d="M33.428 56.0223L28.9276 63.738V68.561H25.9626V63.738L21.4622 56.0223H24.9278L27.4997 60.5765L30.0715 56.0223H33.4296H33.428Z" fill="#1E3BA1"/>
<path d="M39.3226 68.5611V56.0224L40.0903 55.8444L45.4492 61.9894L50.771 55.8444L51.5387 56.0224V68.5611H48.6275V62.5236L45.5382 66.2747H45.3416L42.2523 62.6126V68.5611H39.3226Z" fill="#1E3BA1"/>
<path d="M62.4529 66.0597V68.5594H54.2198V56.0208H62.3102V58.5204H57.1664V60.9848H61.4165V63.4861H57.1664V66.058H62.4529V66.0597Z" fill="#1E3BA1"/>
<path d="M64.6873 68.5611V56.0224L65.455 55.8444L70.8138 61.9894L76.1356 55.8444L76.9034 56.0224V68.5611H73.9921V62.5236L70.9028 66.2747H70.7063L67.617 62.6126V68.5611H64.6873Z" fill="#1E3BA1"/>
<path d="M85.6739 55.7721C89.6217 55.7721 92.4069 58.7371 92.4069 62.2917C92.4069 65.8463 89.62 68.8113 85.6739 68.8113C81.7279 68.8113 78.9578 65.8279 78.9578 62.2917C78.9578 58.7556 81.7077 55.7721 85.6739 55.7721ZM85.6739 66.1134C87.4781 66.1134 89.2454 64.7208 89.2454 62.2917C89.2454 59.8626 87.4764 58.4162 85.6739 58.4162C83.8714 58.4162 82.1193 59.8626 82.1193 62.2917C82.1193 64.7208 83.8513 66.1134 85.6739 66.1134Z" fill="#1E3BA1"/>
<path d="M15.6818 83.4464V70.9078L16.4495 70.7297L21.8083 76.8747L27.1302 70.7297L27.8979 70.9078V83.4464H24.9866V77.4089L21.8973 81.1601H21.7008L18.6115 77.498V83.4464H15.6818Z" fill="#1E3BA1"/>
<path d="M29.3291 83.4464L35.1868 70.8003H36.2233L42.029 83.4464H38.7599L38.0628 81.9278H33.3289L32.6317 83.4464H29.3274H29.3291ZM34.3838 79.4987H36.991L35.6874 76.4262L34.3838 79.4987Z" fill="#1E3BA1"/>
<path d="M50.5124 74.2121C49.7615 73.7837 48.5839 73.3369 47.744 73.3369C46.7612 73.3369 45.9398 73.6947 45.9398 74.3734C45.9398 75.052 46.815 75.4451 48.1018 75.9457C51.2096 77.1788 51.8882 78.6067 51.853 80.0715C51.7992 82.3578 49.6909 83.7152 47.1022 83.6967C45.2813 83.6782 43.5476 82.84 42.7446 82.1781L43.8164 79.9103C44.5135 80.4109 45.7819 81.0711 46.9057 81.0711C47.7456 81.0711 48.888 80.893 48.888 80.0883C48.888 79.2837 47.3341 78.8553 46.0473 78.2489C44.1893 77.3736 42.9748 76.2313 42.9748 74.3734C42.9748 72.5154 44.653 70.6575 47.4752 70.6575C49.0643 70.6575 50.8517 71.4252 51.4582 71.7477L50.5124 74.2121Z" fill="#1E3BA1"/>
<path d="M62.6059 73.4075H59.2831V83.4448H56.3366V73.4075H53.0322V70.9078H62.6059V73.4075Z" fill="#1E3BA1"/>
<path d="M72.7154 80.9451V83.4448H64.4823V70.9061H72.5726V73.4058H67.4288V75.8702H71.6789V78.3715H67.4288V80.9434H72.7154V80.9451Z" fill="#1E3BA1"/>
<path d="M82.0925 78.5345L85.0759 83.4465H81.5045L79.2367 79.3744C78.8083 79.4097 78.3799 79.4097 77.8978 79.4097V83.4465H74.9513V71.0338C81.2021 69.9621 84.0781 71.8738 84.0781 75.0706C84.0781 76.6597 83.0786 77.9633 82.0958 78.5362L82.0925 78.5345ZM77.8944 76.8546C80.2345 77.0327 81.0375 76.2465 81.0375 75.0151C81.0375 73.9434 80.0195 73.1757 77.8944 73.4797V76.8546Z" fill="#1E3BA1"/>
</svg>
